<svg xmlns="http://www.w3.org/2000/svg" width="58.128" height="56.277" viewBox="0 0 58.128 56.277">
  <g id="_1747976840864" transform="translate(1.154 1.394)">
    <path id="Path_23" data-name="Path 23" d="M598.4,470l-13.562,6.885L579,490.656,595.065,520.7l24.411-10.641Z" transform="translate(-579 -470)" fill="#f1cf3f" stroke="#f1cf3f" stroke-width="2.083" fill-rule="evenodd"/>
    <path id="Path_24" data-name="Path 24" d="M617.835,549.554l14.4-7.3L631.4,541,617,547.885Z" transform="translate(-609.072 -526.186)" fill="#068e3f" stroke="#068e3f" stroke-width="2.083" fill-rule="evenodd"/>
    <path id="Path_25" data-name="Path 25" d="M611.626,533.554l14.4-7.094L625.188,525,611,531.885Z" transform="translate(-604.323 -513.525)" fill="#068e3f" stroke="#068e3f" stroke-width="2.083" fill-rule="evenodd"/>
    <path id="Path_26" data-name="Path 26" d="M604.835,519.554l14.4-7.094L618.4,511,604,517.885Z" transform="translate(-598.784 -502.446)" fill="#068e3f" stroke="#068e3f" stroke-width="2.083" fill-rule="evenodd"/>
    <path id="Path_27" data-name="Path 27" d="M644.591,484.5,628.735,482l-12.31,7.511L611,525.189l26.5,4.382Z" transform="translate(-604.323 -479.496)" fill="#1484a4" stroke="#1484a4" stroke-width="2.083" fill-rule="evenodd"/>
    <path id="Path_28" data-name="Path 28" d="M653,554.669l15.857,2.3.209-1.669L653.209,553Z" transform="translate(-637.56 -535.683)" fill="#f1cf3f" stroke="#f1cf3f" stroke-width="2.083" fill-rule="evenodd"/>
    <path id="Path_29" data-name="Path 29" d="M656,537.669l16.065,2.5V538.5L656.417,536Z" transform="translate(-639.935 -522.23)" fill="#f1cf3f" stroke="#f1cf3f" stroke-width="2.083" fill-rule="evenodd"/>
    <path id="Path_30" data-name="Path 30" d="M659,522.669l15.857,2.3.209-1.461L659.209,521Z" transform="translate(-642.309 -510.359)" fill="#f1cf3f" stroke="#f1cf3f" stroke-width="2.083" fill-rule="evenodd"/>
    <path id="Path_31" data-name="Path 31" d="M625.663,513l14.4,1.252,11.058,11.058-32.34,32.131L600,538.663Z" transform="translate(-595.619 -504.028)" fill="#00b154" stroke="#00b154" stroke-width="2.083" fill-rule="evenodd"/>
    <path id="Path_32" data-name="Path 32" d="M656.381,597l12.1,11.893-8.137,7.928-3.338-3.13,3.338-3.547L652,601.8Z" transform="translate(-636.769 -570.502)" fill="#fff" fill-rule="evenodd"/>
    <path id="Path_33" data-name="Path 33" d="M637.13,621l2.921,3.13-2.921,2.921L634,624.13Z" transform="translate(-622.525 -589.495)" fill="#fff" fill-rule="evenodd"/>
    <path id="Path_34" data-name="Path 34" d="M654.13,638,651,641.13l2.086,2.086,3.13-2.921Z" transform="translate(-635.978 -602.948)" fill="#fff" fill-rule="evenodd"/>
    <path id="Path_35" data-name="Path 35" d="M666.921,650,664,653.13l1.878,1.878,3.13-2.921Z" transform="translate(-646.265 -612.444)" fill="#fff" fill-rule="evenodd"/>
    <path id="Path_36" data-name="Path 36" d="M675,582.13l3.13-3.13,3.338,2.921-3.338,3.338Z" transform="translate(-654.97 -556.258)" fill="#fff" fill-rule="evenodd"/>
    <path id="Path_37" data-name="Path 37" d="M695.338,596l2.086,1.878-3.13,3.338-2.3-1.878Z" transform="translate(-668.423 -569.711)" fill="#fff" fill-rule="evenodd"/>
    <path id="Path_38" data-name="Path 38" d="M707.338,607l2.086,2.086-3.338,3.338L704,610.547Z" transform="translate(-677.92 -578.416)" fill="#fff" fill-rule="evenodd"/>
    <path id="Path_39" data-name="Path 39" d="M719.338,619l3.756,3.338-3.547,3.547L716,622.547Z" transform="translate(-687.416 -587.912)" fill="#fff" fill-rule="evenodd"/>
    <path id="Path_40" data-name="Path 40" d="M712,552.252l11.684,11.267,1.043-1.252L713.252,551Z" transform="translate(-684.251 -534.1)" fill="#f1cf3f" stroke="#f1cf3f" stroke-width="2.083" fill-rule="evenodd"/>
    <path id="Path_41" data-name="Path 41" d="M724,541.252l11.684,11.058,1.043-1.252L725.252,540Z" transform="translate(-693.747 -525.395)" fill="#f1cf3f" stroke="#f1cf3f" stroke-width="2.083" fill-rule="evenodd"/>
    <path id="Path_42" data-name="Path 42" d="M735,530.252l11.684,11.058,1.043-1.252L736.252,529Z" transform="translate(-702.452 -516.69)" fill="#f1cf3f" stroke="#f1cf3f" stroke-width="2.083" fill-rule="evenodd"/>
  </g>
</svg>
