<svg id="_1747973460352" xmlns="http://www.w3.org/2000/svg" width="78.506" height="42.203" viewBox="0 0 78.506 42.203">
  <path id="Path_67" data-name="Path 67" d="M1125.487,231.965h-44.858a3.328,3.328,0,0,1-2.921-4.8l13.77-26.289A3.272,3.272,0,0,1,1094.4,199h46.736a3.375,3.375,0,0,1,2.712,5.216L1128.2,230.3A3.007,3.007,0,0,1,1125.487,231.965Z" transform="translate(-1070.975 -195.87)" fill="#068e3f"/>
  <path id="Path_68" data-name="Path 68" d="M1120.956,231.965h-44.65a3.255,3.255,0,0,1-2.921-4.8l13.562-26.289a3.844,3.844,0,0,1,2.921-1.878H1136.6a3.46,3.46,0,0,1,2.921,5.216l-15.648,26.08A3.33,3.33,0,0,1,1120.956,231.965Z" transform="translate(-1067.486 -195.87)" fill="#9277b4"/>
  <path id="Path_69" data-name="Path 69" d="M1120.581,231.965h-44.649a3.431,3.431,0,0,1-3.13-4.8l13.771-26.289a3.533,3.533,0,0,1,2.921-1.878h46.736a3.533,3.533,0,0,1,2.921,5.216L1123.5,230.3A3.33,3.33,0,0,1,1120.581,231.965Z" transform="translate(-1067.112 -195.87)" fill="#00b154"/>
  <path id="Path_70" data-name="Path 70" d="M1219.678,220.46a.728.728,0,0,0-.209-.417c0-.417-.209-.626-.417-.626,0-.209-.209-.209-.417-.209a.766.766,0,0,0-.626-.209c-.417,0-.626,0-.835.209-.417,0-.626.209-.626.417a.766.766,0,0,0-.209.626v1.878h-1.252V220.46a.767.767,0,0,0-.209-.626.449.449,0,0,0-.417-.417c0-.209-.209-.209-.417-.209a.767.767,0,0,0-.626-.209c-.417,0-.626,0-.834.209-.209,0-.417.209-.626.417a.767.767,0,0,0-.209.626v3.13a1.386,1.386,0,0,0-1.043-.835h0l.626-.626a3.526,3.526,0,0,0,.417-1.043,1.774,1.774,0,0,0-.626-1.043h0v-.209h-.209a1.594,1.594,0,0,0-1.043-.417,2.646,2.646,0,0,0-1.252-.209,3.326,3.326,0,0,0-2.5.835,2.679,2.679,0,0,0-.835,2.086,3.016,3.016,0,0,0,.417,1.461c.209.417.209.626.626.835-.208,0-.417,0-.417.209-.209.209-.417.209-.417.417l-2.3-4.8h0a1.858,1.858,0,0,0-1.669-1.043c-.209,0-.417.209-.835.209a2.88,2.88,0,0,0-.626.835l-2.712,5.425a.2.2,0,0,0-.209-.209.646.646,0,0,0-.417-.209h-2.5v-5.216c-.209-.209-.209-.417-.417-.417a8201.134,8201.134,0,0,1-1.252-.417,1.254,1.254,0,0,0-.835.209c-.209,0-.417.209-.626.417,0-.209-.209-.209-.417-.417-.209,0-.417-.209-.626-.209h-4.381a1.764,1.764,0,0,0-1.252.417c-.417.209-.417.626-.417,1.252v6.468c0,.209.209.417.417.626.209,0,.209.209.417.209s.417.209.835.209c.209,0,.417-.209.626-.209.417,0,.626-.209.834-.626,0-.209,0-.209.209-.417v-1.669h1.46c.209,0,.417,0,.417-.209.209,0,.417-.209.626-.209a45112.518,45112.518,0,0,0,.417-1.252,1.255,1.255,0,0,0-.209-.835c0-.209-.209-.209-.209-.417h.209a.767.767,0,0,0,.626-.209.2.2,0,0,0,.209-.209v5.216c.209.209.209.417.417.626.209,0,.417.209.626.209s.417.209.626.209h3.755c.209,0,.209,0,.417-.209h.417l.417-.417a1.606,1.606,0,0,0,.626.417,1.774,1.774,0,0,0,1.669,0c0-.209.209-.209.209-.417.209-.209.209-.209.209-.417l.417-.626h1.878l.417.626v.417c.209.209.417.209.417.417a1.774,1.774,0,0,0,1.669,0c.417-.209.834-.626.834-.835.209,0,.209,0,.209.209.208,0,.208.209.417.417.417,0,.626.209,1.043.209a2.712,2.712,0,0,0,2.086,0,2.966,2.966,0,0,0,1.252-.417,4.554,4.554,0,0,0,.835-1.043v.626c.209.209.209.417.417.626.209,0,.417.209.626.209h1.252c.417,0,.626-.209.835-.626,0-.209.209-.209.209-.417v-1.878h1.252v2.086c0,.209.209.417.417.626.209,0,.209.209.417.209h1.46c.417,0,.626-.209.835-.626v-.417a.646.646,0,0,0,.209-.417V220.46Z" transform="translate(-1155.359 -211.698)" fill="#068e3f"/>
  <path id="Path_71" data-name="Path 71" d="M1146.756,290.677h0a.2.2,0,0,0-.209-.209h0C1146.756,290.468,1146.756,290.468,1146.756,290.677Zm25.454-3.13c.209-.209.417-.209.417-.417.209-.209.209-.417.417-.626v-1.461a2.88,2.88,0,0,0-.626-.835h-.626c-.209-.209-.209-.209-.417-.209h-4.59a2.965,2.965,0,0,0-1.252.417,3.014,3.014,0,0,0-.417,1.46v5.007h-.209c0-.209-.209-.209-.417-.209h-2.712v-5.633c-.209-.209-.209-.417-.417-.626-.209,0-.417-.209-.626-.209s-.417-.209-.626-.209c-.417,0-.626.209-.835.209-.417,0-.626.209-.835.626,0,.209,0,.417-.209.417v5.216l-2.5-5.425h0a1.859,1.859,0,0,0-1.669-1.043,1.581,1.581,0,0,0-.835.417q-.626.313-.626.626l-2.3,4.382a.767.767,0,0,0-.209-.626,2.514,2.514,0,0,0-1.043-1.043h-.209a2.88,2.88,0,0,0,.835-.626,3.525,3.525,0,0,0,.417-1.043,1.783,1.783,0,0,0-.626-1.252h-.209l-.209-.209a1.084,1.084,0,0,0-.835-.417,4.073,4.073,0,0,0-1.46-.209,3.848,3.848,0,0,0-2.712.835,3.138,3.138,0,0,0-.834,2.3,2.248,2.248,0,0,0,.417,1.669c.209.209.417.626.626.835a.449.449,0,0,0-.417.417A1.509,1.509,0,0,0,1143,291.3c0,.417.209.626.417,1.043h0l.209.209.417.417c.209,0,.417.209.626.417s.417.209.834.417c.417,0,.835.209,1.252.209s.835-.209,1.252-.209a4.559,4.559,0,0,0,1.043-.626c.209,0,.209-.209.417-.209a2.88,2.88,0,0,0,.834.626c.417.209.626.417,1.043.417.209,0,.417-.209.626-.417a.449.449,0,0,0,.417-.417.728.728,0,0,0,.209-.417l.417-.626h2.086l.417.626a.646.646,0,0,1,.209.417c.209.209.209.417.417.417a1.084,1.084,0,0,0,.835.417,1.582,1.582,0,0,0,.835-.417,1.084,1.084,0,0,0,.834-.417c0,.209,0,.209.209.209,0,.209.209.209.417.417h5.216a.767.767,0,0,0,.626-.209.729.729,0,0,0,.208-.417l.209.209c.209.209.417.209.626.417h6.051c.209-.209.417-.209.417-.417.209-.209.209-.417.417-.626V291.3a2.88,2.88,0,0,0-.626-.835.766.766,0,0,1-.626-.209h-.417c.209-.209.209-.417.417-.626v-1.461c-.209-.209-.209-.417-.417-.626h.835Z" transform="translate(-1122.913 -263.136)" fill="#068e3f"/>
  <path id="Path_72" data-name="Path 72" d="M1217.678,220.46a.728.728,0,0,0-.209-.417c0-.417-.209-.626-.417-.626,0-.209-.209-.209-.417-.209a.766.766,0,0,0-.626-.209c-.417,0-.626,0-.835.209-.209,0-.626.209-.626.417a.767.767,0,0,0-.209.626v1.878h-1.252V220.46a.766.766,0,0,0-.209-.626.449.449,0,0,0-.417-.417c0-.209-.209-.209-.417-.209a.766.766,0,0,0-.626-.209c-.417,0-.626,0-.835.209-.209,0-.417.209-.626.417a.766.766,0,0,0-.209.626v3.13a1.386,1.386,0,0,0-1.043-.835h0l.626-.626a3.525,3.525,0,0,0,.417-1.043,1.774,1.774,0,0,0-.626-1.043h0v-.209h-.209a1.594,1.594,0,0,0-1.043-.417,2.646,2.646,0,0,0-1.252-.209,3.326,3.326,0,0,0-2.5.835,2.679,2.679,0,0,0-.835,2.086,3.015,3.015,0,0,0,.417,1.461c.209.417.209.626.626.835-.209,0-.417,0-.417.209-.209.209-.417.209-.417.417l-2.3-4.8h0a1.858,1.858,0,0,0-1.669-1.043c-.209,0-.417.209-.835.209a2.882,2.882,0,0,0-.626.835l-2.712,5.425a.2.2,0,0,0-.208-.209.646.646,0,0,0-.417-.209h-2.5v-5.216c-.209-.209-.209-.417-.417-.417a18042.3,18042.3,0,0,0-1.252-.417,1.255,1.255,0,0,0-.835.209c-.209,0-.417.209-.626.417,0-.209-.209-.209-.417-.417-.209,0-.417-.209-.626-.209h-4.381a1.764,1.764,0,0,0-1.252.417c-.417.209-.417.626-.417,1.252v6.468c.209.209.209.417.417.626.209,0,.209.209.417.209s.417.209.835.209c.209,0,.417-.209.626-.209.417,0,.626-.209.835-.626,0-.209,0-.209.209-.417v-1.669h1.461c.208,0,.417,0,.417-.209.209,0,.417-.209.626-.209a45112.518,45112.518,0,0,0,.417-1.252,1.255,1.255,0,0,0-.209-.835c0-.209-.209-.209-.209-.417h.209a.766.766,0,0,0,.626-.209.2.2,0,0,0,.209-.209v5.216c.209.209.417.417.417.626.209,0,.417.209.626.209s.417.209.626.209h3.756c.209,0,.209,0,.417-.209h.417l.417-.417a1.6,1.6,0,0,0,.626.417,1.773,1.773,0,0,0,1.669,0c0-.209.209-.209.209-.417.209-.209.209-.209.209-.417l.417-.626h1.878l.417.626v.417c.209.209.417.209.417.417a1.773,1.773,0,0,0,1.669,0c.417-.209.835-.626.835-.835.209,0,.209,0,.209.209.209,0,.209.209.417.417.417,0,.626.209,1.043.209a2.712,2.712,0,0,0,2.086,0,2.966,2.966,0,0,0,1.252-.417,4.551,4.551,0,0,0,.834-1.043v.626c.209.209.209.417.417.626.209,0,.417.209.626.209h1.252c.417,0,.626-.209.835-.626,0-.209.209-.209.209-.417v-1.878h1.252v2.086c0,.209.209.417.417.626.209,0,.209.209.417.209h1.461c.417,0,.626-.209.835-.626v-.417a.646.646,0,0,0,.209-.417V220.46Z" transform="translate(-1153.776 -211.698)" fill="#f89a3b"/>
  <path id="Path_73" data-name="Path 73" d="M1144.756,290.677h0a.2.2,0,0,0-.209-.209h0C1144.756,290.468,1144.756,290.468,1144.756,290.677Zm25.454-3.13c.209-.209.417-.209.417-.417.209-.209.209-.417.417-.626v-1.461a2.878,2.878,0,0,0-.626-.835h-.626c-.209-.209-.209-.209-.417-.209h-4.381a1.564,1.564,0,0,0-1.878,1.878v5.007h-.209c0-.209-.209-.209-.417-.209h-2.712v-5.633c-.209-.209-.209-.417-.417-.626-.209,0-.417-.209-.626-.209s-.417-.209-.626-.209c-.417,0-.626.209-.834.209-.417,0-.626.209-.835.626,0,.209,0,.417-.209.417v5.216l-2.5-5.425h0a1.858,1.858,0,0,0-1.669-1.043,1.581,1.581,0,0,0-.835.417q-.626.313-.626.626l-2.3,4.382a.767.767,0,0,0-.209-.626,2.514,2.514,0,0,0-1.043-1.043h-.209a2.882,2.882,0,0,0,.835-.626,3.525,3.525,0,0,0,.417-1.043,1.783,1.783,0,0,0-.626-1.252h-.209l-.209-.209a1.084,1.084,0,0,0-.835-.417,4.073,4.073,0,0,0-1.46-.209,3.848,3.848,0,0,0-2.712.835,3.137,3.137,0,0,0-.834,2.3,2.248,2.248,0,0,0,.417,1.669c.209.209.417.626.626.835a.449.449,0,0,0-.417.417A1.509,1.509,0,0,0,1141,291.3c0,.417.209.626.417,1.043h0l.209.209.417.417c.209,0,.417.209.626.417s.417.209.834.417c.417,0,.835.209,1.252.209s.834-.209,1.252-.209a4.561,4.561,0,0,0,1.043-.626c.209,0,.209-.209.417-.209a2.882,2.882,0,0,0,.835.626c.417.209.626.417,1.043.417.209,0,.417-.209.626-.417a.449.449,0,0,0,.417-.417.728.728,0,0,0,.209-.417l.417-.626h2.086l.417.626a.646.646,0,0,1,.209.417c.209.209.209.417.417.417a1.084,1.084,0,0,0,.834.417,1.581,1.581,0,0,0,.835-.417,1.084,1.084,0,0,0,.835-.417c0,.209,0,.209.209.209,0,.209.209.209.417.417h5.216a.766.766,0,0,0,.626-.209.729.729,0,0,0,.209-.417l.209.209c.209.209.417.209.626.417h6.051c.209-.209.417-.209.417-.417.209-.209.209-.417.417-.626V291.3a2.878,2.878,0,0,0-.626-.835.766.766,0,0,1-.626-.209h-.417c.209-.209.209-.417.417-.626v-1.461c-.209-.209-.209-.417-.417-.626h.835Z" transform="translate(-1121.331 -263.136)" fill="#f89a3b"/>
  <path id="Path_74" data-name="Path 74" d="M1190.007,223h.626c.209.209.209.209.209.417v1.043a.2.2,0,0,1-.209.209h-.209c-.209,0-.209.209-.417.209h-3.13v.835h2.086a.2.2,0,0,1,.209.209h.417l.209.209v1.043a.2.2,0,0,1-.209.209c0,.209,0,.209-.208.209h-2.5v2.3c0,.209,0,.209-.209.417l-.209.209h-.834c-.209,0-.209-.209-.417-.209v-.209a.2.2,0,0,1-.209-.209v-6.051a.914.914,0,0,1,.209-.626c.209-.209.417-.209.835-.209Z" transform="translate(-1156.151 -214.863)" fill="#f7953d"/>
  <path id="Path_75" data-name="Path 75" d="M1220.669,229.051h3.338a.2.2,0,0,1,.209.209v.835c0,.209,0,.209-.209.209a.2.2,0,0,1-.208.209h-4.382a.2.2,0,0,1-.209-.209c-.209,0-.209,0-.209-.209v-6.885a.728.728,0,0,1,.417-.209h.835c.209,0,.209,0,.209.209.209,0,.209,0,.209.209v5.633Z" transform="translate(-1183.057 -214.863)" fill="#f7953d"/>
  <path id="Path_76" data-name="Path 76" d="M1251.756,225.921l-.626,1.461h1.46Zm.834-2.5,2.921,5.842a.728.728,0,0,0,.209.417c0,.417-.209.626-.626.835h-1.043V230.3a.2.2,0,0,1-.209-.209l-.626-1.252H1250.5l-.626,1.252-.209.209a.2.2,0,0,1-.209.209h-.835c-.417-.209-.626-.417-.626-.835a.728.728,0,0,0,.209-.417l2.712-5.842c.209,0,.209-.209.417-.417h.417C1252.173,223,1252.59,223.209,1252.59,223.417Z" transform="translate(-1206.006 -214.863)" fill="#f7953d"/>
  <path id="Path_77" data-name="Path 77" d="M1287.209,228.677a.766.766,0,0,1-.209-.626c0-.209.209-.417.417-.626a.767.767,0,0,1,.626-.209c.209,0,.417,0,.626.417h.209v.209a.646.646,0,0,1,.417.209h.417c.626,0,1.043-.209,1.043-.626a.449.449,0,0,0-.417-.417.766.766,0,0,0-.626-.209c-.209-.209-.417-.209-.835-.417-.209,0-.626-.209-.835-.209a2.883,2.883,0,0,1-.626-.835,1.564,1.564,0,0,1-.209-1.043,2.774,2.774,0,0,1,.626-1.669,2.55,2.55,0,0,1,1.878-.626,1.88,1.88,0,0,1,1.043.209c.417,0,.626.209.626.417h.417a.767.767,0,0,1,.209.626c0,.209,0,.209-.209.626-.209.209-.417.417-.626.417a.767.767,0,0,1-.626-.209h-.209v-.209h-.209a.646.646,0,0,0-.417-.209c-.209,0-.417.209-.626.209,0,.209-.209.209-.209.417a.449.449,0,0,0,.417.417c0,.209.209.209.626.209.209.209.417.209.834.209.209.209.626.209.835.417l.626.626a1.564,1.564,0,0,1,.209,1.043,2.259,2.259,0,0,1-.209,1.252,2.883,2.883,0,0,1-.626.835c-.417.209-.626.209-1.043.417h-1.669c-.417-.209-.626-.209-.835-.417a.728.728,0,0,0-.417-.209c-.209-.209-.209-.209-.209-.417Z" transform="translate(-1236.869 -214.072)" fill="#f7953d"/>
  <path id="Path_78" data-name="Path 78" d="M1323.633,223h.417a1008.931,1008.931,0,0,1,.417.417v6.468c0,.209,0,.209-.209.417l-.209.209h-1.043a.2.2,0,0,0-.208-.209v-.209a.2.2,0,0,1-.209-.209v-2.5h-2.712V230.3c-.209,0-.209,0-.417.209h-.834c-.209-.209-.209-.209-.417-.209v-.209a.2.2,0,0,0-.209-.209v-6.051c0-.209,0-.209.209-.417v-.209l.209-.209h1.043c.209,0,.209,0,.209.209.209,0,.209,0,.209.209v2.5h2.712v-2.5a.2.2,0,0,0,.209-.209l.208-.209Z" transform="translate(-1261.401 -214.863)" fill="#f7953d"/>
  <path id="Path_79" data-name="Path 79" d="M1145.209,294.3a.767.767,0,0,1-.209-.626c0-.209.209-.417.417-.835a.767.767,0,0,1,.626-.209c.209,0,.417.209.835.417v.209h.209a.2.2,0,0,0,.209.209.767.767,0,0,0,.626.209c.626,0,1.043-.209,1.043-.835,0-.209-.209-.209-.417-.417,0-.209-.417-.209-.626-.209s-.626-.209-.835-.209c-.417-.209-.626-.417-1.043-.417a2.883,2.883,0,0,1-.626-.835A2.966,2.966,0,0,1,1145,289.5a2.575,2.575,0,0,1,.835-1.669,3.187,3.187,0,0,1,2.086-.835,9.032,9.032,0,0,1,1.043.209c.417.209.626.209.835.417l.209.209h0c.417.209.417.417.417.626a1.615,1.615,0,0,1-.209.626,1.582,1.582,0,0,1-.834.417.766.766,0,0,1-.626-.209h0l-.209-.209a.2.2,0,0,1-.208-.209h-.417a.767.767,0,0,0-.626.209c-.209.209-.209.209-.209.417a.766.766,0,0,0,.209.626c.209,0,.417.209.835.209.209,0,.626.209.835.209.417,0,.626.209,1.043.417q.313,0,.626.626a3.858,3.858,0,0,1,0,2.5,1.629,1.629,0,0,1-.834.835,1.582,1.582,0,0,1-.835.417,2.712,2.712,0,0,1-2.086,0c-.209,0-.417-.209-.626-.209-.209-.209-.417-.209-.626-.417s-.209-.209-.209-.417Z" transform="translate(-1124.496 -265.51)" fill="#f7953d"/>
  <path id="Path_80" data-name="Path 80" d="M1178.173,291.338l-.626,1.461h1.46Zm1.043-2.712,2.921,6.259a.767.767,0,0,1,.209.626q0,.313-.626.626a.766.766,0,0,1-.626.209c-.208,0-.208,0-.417-.209a.2.2,0,0,1-.209-.209l-.209-.209-.417-1.252h-3.13l-.626,1.252a.2.2,0,0,1-.209.209c0,.209,0,.209-.209.209a.2.2,0,0,1-.209.209.766.766,0,0,1-.626-.209c-.417-.209-.835-.417-.835-.626s.209-.417.209-.626l3.13-6.259a.449.449,0,0,1,.417-.417c.209-.209.209-.209.417-.209A1.148,1.148,0,0,1,1179.216,288.626Z" transform="translate(-1147.446 -266.301)" fill="#f7953d"/>
  <path id="Path_81" data-name="Path 81" d="M1220.086,294.468h2.921c.209,0,.209,0,.417.209h.208l.209.209v1.043l-.209.209h-5.425c0-.209-.209-.209-.209-.417v-7.094c0-.209,0-.209.209-.417l.209-.209h1.043a1008.931,1008.931,0,0,1,.417.417v.209c.209.209.209.209.209.417Z" transform="translate(-1182.265 -266.301)" fill="#f7953d"/>
  <path id="Path_82" data-name="Path 82" d="M1252.878,294.259h4.173c0,.209.209.209.209.417v1.043c0,.209,0,.209-.209.209,0,.209,0,.209-.209.209h-5.633c-.209-.209-.209-.209-.209-.417v-6.677c0-.417,0-.626.209-.835,0-.209.417-.209.834-.209h4.8l.209.209a.2.2,0,0,1,.209.209v1.043c0,.209,0,.209-.209.417h-.209l-.209.209h-3.756v1.043h2.712a.2.2,0,0,1,.209.209c.209,0,.209,0,.209.209s.209.417.209.626-.209.209-.209.417v.209c-.209.209-.209.209-.417.209h-2.712Z" transform="translate(-1208.38 -266.301)" fill="#f7953d"/>
  <path id="Path_83" data-name="Path 83" d="M1189.007,222h.626c.209.209.209.209.209.417v1.043a.2.2,0,0,1-.209.209h-3.756v1.043h2.086a.2.2,0,0,1,.209.209h.417a.2.2,0,0,0,.209.209v1.043a.2.2,0,0,1-.209.209c0,.209,0,.209-.209.209h-2.5v2.3c0,.209,0,.209-.209.417l-.209.209h-1.043a1008.931,1008.931,0,0,1-.417-.417v-6.259a.914.914,0,0,1,.209-.626c.209-.209.417-.209.835-.209Z" transform="translate(-1155.359 -214.072)" fill="#efe93d"/>
  <path id="Path_84" data-name="Path 84" d="M1219.669,228.051h3.338a.2.2,0,0,1,.209.209v.835c0,.209,0,.209-.209.209a.2.2,0,0,1-.209.209h-4.382l-.209-.209a.2.2,0,0,1-.209-.209v-6.885l.209-.209h1.043c.209,0,.209,0,.209.209.209,0,.209,0,.209.209v5.633Z" transform="translate(-1182.265 -214.072)" fill="#efe93d"/>
  <path id="Path_85" data-name="Path 85" d="M1250.756,224.921l-.626,1.461h1.461Zm.835-2.5,2.921,5.842v.417a.833.833,0,0,1-.417.835h-1.043V229.3c-.209,0-.209-.209-.209-.417l-.626-1.043H1249.5l-.626,1.043a.729.729,0,0,1-.209.417.2.2,0,0,1-.209.209h-.208a.766.766,0,0,1-.626-.209.666.666,0,0,1-.626-.626.728.728,0,0,0,.209-.417l2.712-5.842.417-.417h.417A1.084,1.084,0,0,1,1251.59,222.417Z" transform="translate(-1205.215 -214.072)" fill="#efe93d"/>
  <path id="Path_86" data-name="Path 86" d="M1286.209,227.677a.766.766,0,0,1-.209-.626c0-.209.209-.417.417-.626s.417-.417.626-.417.417.209.626.626h.209v.209a.646.646,0,0,1,.417.209h.417c.626,0,.834-.209.834-.626,0-.209,0-.417-.209-.417a.766.766,0,0,0-.626-.209c-.209-.209-.626-.209-.835-.417-.209,0-.626-.209-.835-.209a2.883,2.883,0,0,1-.626-.835,1.564,1.564,0,0,1-.209-1.043,2.774,2.774,0,0,1,.626-1.669,2.55,2.55,0,0,1,1.878-.626,1.881,1.881,0,0,1,1.043.209.914.914,0,0,1,.626.209l.209.209h.209a.767.767,0,0,1,.209.626,1.615,1.615,0,0,1-.209.626c-.209.209-.417.417-.626.417a.767.767,0,0,1-.626-.209l-.209-.209h0c-.209,0-.209,0-.417-.209h-.209a.766.766,0,0,0-.626.209.729.729,0,0,0-.209.417.449.449,0,0,0,.417.417c0,.209.209.209.626.209.209.209.417.209.835.209.209.209.626.209.834.417q.313,0,.626.626a1.563,1.563,0,0,1,.209,1.043,2.645,2.645,0,0,1-.209,1.252,2.878,2.878,0,0,1-.626.835c-.417.209-.626.209-1.043.417h-1.669c-.417-.209-.626-.209-.835-.417-.209,0-.209-.209-.417-.209-.209-.209-.209-.209-.209-.417Z" transform="translate(-1236.078 -213.28)" fill="#efe93d"/>
  <path id="Path_87" data-name="Path 87" d="M1322.633,222h.417a.2.2,0,0,1,.209.209l.209.209v6.468c0,.209,0,.209-.209.209,0,.209,0,.209-.209.417h-1.043a1008.931,1008.931,0,0,0-.417-.417v-2.712h-2.712v2.712l-.417.417h-.834c-.209-.209-.209-.209-.417-.209v-.209l-.209-.209v-6.468c.209,0,.209,0,.209-.209l.209-.209h1.043a1008.931,1008.931,0,0,1,.417.417v2.5h2.712v-2.5l.209-.209a.2.2,0,0,1,.209-.209Z" transform="translate(-1260.61 -214.072)" fill="#efe93d"/>
  <path id="Path_88" data-name="Path 88" d="M1144.209,293.3a.766.766,0,0,1-.209-.626c0-.209,0-.417.417-.835a.766.766,0,0,1,.626-.209c.209,0,.417.209.835.417h0c0,.209,0,.209.209.209l.209.209a.766.766,0,0,0,.626.209c.626,0,1.043-.209,1.043-.835a.449.449,0,0,0-.417-.417.766.766,0,0,0-.626-.209,1.254,1.254,0,0,0-.835-.209c-.417-.209-.626-.417-1.043-.417a2.881,2.881,0,0,1-.626-.835A2.966,2.966,0,0,1,1144,288.5a2.576,2.576,0,0,1,.835-1.669,2.034,2.034,0,0,1,1.878-.835,7.376,7.376,0,0,1,1.252.209c.417.209.626.209.835.417l.209.209h0c.417.209.417.417.417.417a.766.766,0,0,1-.209.626,1.118,1.118,0,0,1-.834.626.766.766,0,0,1-.626-.209h0l-.209-.209a.2.2,0,0,1-.208-.209h-.626a.646.646,0,0,0-.417.209c-.209.209-.209.209-.209.417a.766.766,0,0,0,.209.626c.209,0,.417.209.834.209a1.577,1.577,0,0,1,.835.209c.417,0,.626.209,1.043.417q.313,0,.626.626c.209.209.209.626.209,1.252a2.647,2.647,0,0,1-.209,1.252,1.629,1.629,0,0,1-.835.835,1.582,1.582,0,0,1-.835.417,2.712,2.712,0,0,1-2.086,0,2.1,2.1,0,0,1-.626-.209c-.209-.209-.417-.209-.626-.417s-.209-.209-.209-.417Z" transform="translate(-1123.705 -264.718)" fill="#efe93d"/>
  <path id="Path_89" data-name="Path 89" d="M1177.173,290.338l-.626,1.461h1.461Zm.835-2.712,3.13,6.259a.646.646,0,0,1,.209.417c0,.417-.209.626-.626.835a.766.766,0,0,1-.626.209c-.209,0-.209,0-.417-.209a.2.2,0,0,1-.209-.209.2.2,0,0,0-.209-.209l-.417-1.252h-3.13l-.626,1.252-.209.209c0,.209,0,.209-.209.209a.2.2,0,0,1-.209.209.766.766,0,0,1-.626-.209c-.626-.209-.835-.417-.835-.835a.729.729,0,0,0,.209-.417l3.13-6.259a.449.449,0,0,1,.417-.417c0-.209.209-.209.417-.209C1177.59,287,1178.007,287.209,1178.007,287.626Z" transform="translate(-1146.654 -265.51)" fill="#efe93d"/>
  <path id="Path_90" data-name="Path 90" d="M1218.878,293.468h3.547c0,.209,0,.209.209.209a.2.2,0,0,1,.209.209v1.043l-.209.209h-5.216a403.407,403.407,0,0,0-.417-.417v-7.094c0-.209,0-.209.209-.417a.2.2,0,0,1,.208-.209h1.043a.2.2,0,0,1,.209.209c.209,0,.209,0,.209.209v6.051Z" transform="translate(-1181.474 -265.51)" fill="#efe93d"/>
  <path id="Path_91" data-name="Path 91" d="M1251.878,293.259h4.173c0,.209.209.209.209.417v1.043c0,.209,0,.209-.209.209,0,.209,0,.209-.208.209h-5.425c-.209,0-.209,0-.209-.209-.209,0-.209,0-.209-.209v-6.677c0-.417,0-.626.209-.835,0-.209.417-.209.626-.209h4.8c.209,0,.209,0,.417.209a.2.2,0,0,1,.209.209v1.043c0,.209,0,.209-.209.209,0,.209,0,.209-.208.209h-3.964v1.252h2.921c.208.209.208.209.208.417V291.8c-.208.209-.208.209-.417.209h-2.712Z" transform="translate(-1207.589 -265.51)" fill="#efe93d"/>
  <path id="Path_92" data-name="Path 92" d="M1288.712,241.626a.766.766,0,0,1,.626.209c.209,0,.209.209.209.417,0,.417-.209.626-.834.626h-.417a.646.646,0,0,0-.417-.209v-.209h-.209q-.313-.626-.626-.626c-.209,0-.417.209-.626.417s-.417.417-.417.626a.767.767,0,0,0,.209.626h.209c0,.209,0,.209.209.417.209,0,.209.209.417.209.209.209.417.209.835.417h1.669c.417-.209.626-.209,1.043-.417a2.878,2.878,0,0,0,.626-.835,2.645,2.645,0,0,0,.209-1.252,1.563,1.563,0,0,0-.209-1.043h-4.173c.417,0,.626.209.835.209C1288.086,241.417,1288.5,241.417,1288.712,241.626Z" transform="translate(-1236.078 -229.107)" fill="#f5f196"/>
  <path id="Path_93" data-name="Path 93" d="M1217,307v3.547a448.244,448.244,0,0,1,.417.417h5.216l.209-.209v-1.043a.2.2,0,0,0-.209-.209c-.209,0-.209,0-.209-.209h-3.547V307Z" transform="translate(-1181.474 -281.337)" fill="#f5f196"/>
  <path id="Path_94" data-name="Path 94" d="M1250.338,241h-2.086l-1.043,2.3a.728.728,0,0,1-.209.417.666.666,0,0,0,.626.626.766.766,0,0,0,.626.209h.208a.2.2,0,0,0,.209-.209.729.729,0,0,0,.209-.417l.626-1.043h2.712l.626,1.043c0,.209,0,.417.209.417v.209h1.043a.833.833,0,0,0,.417-.835V243.3l-1.252-2.3h-1.878l.209.417h-1.461Z" transform="translate(-1205.215 -229.107)" fill="#f5f196"/>
  <path id="Path_95" data-name="Path 95" d="M1254.173,307.835h.417c.209,0,.209,0,.417-.209V307H1250v3.547c0,.209,0,.209.209.209,0,.209,0,.209.209.209h5.425c.208,0,.208,0,.208-.209.209,0,.209,0,.209-.209V309.5c0-.209-.209-.209-.209-.417h-4.173v-1.252Z" transform="translate(-1207.589 -281.337)" fill="#f5f196"/>
  <path id="Path_96" data-name="Path 96" d="M1184,243.5v.626a1008.931,1008.931,0,0,0,.417.417h1.043l.209-.209c.209-.209.209-.209.209-.417v-2.3h2.5c.209,0,.209,0,.209-.209a.2.2,0,0,0,.209-.209V241H1184Z" transform="translate(-1155.359 -229.107)" fill="#f5f196"/>
  <path id="Path_97" data-name="Path 97" d="M1178.842,309.3l.417,1.252a.2.2,0,0,1,.209.209.2.2,0,0,0,.209.209c.209.209.209.209.417.209a.766.766,0,0,0,.626-.209c.417-.209.626-.417.626-.835a.646.646,0,0,0-.209-.417L1179.885,307h-2.3l.417.626h-1.461l.209-.626h-2.086l-1.461,2.712a.729.729,0,0,1-.209.417c0,.417.209.626.835.835a.766.766,0,0,0,.626.209.2.2,0,0,0,.209-.209c.209,0,.209,0,.209-.209l.209-.209.626-1.252Z" transform="translate(-1146.654 -281.337)" fill="#f5f196"/>
  <path id="Path_98" data-name="Path 98" d="M1317,241v2.921l.209.209v.209c.209,0,.209,0,.417.209h.834l.417-.417v-2.712h2.712v2.712a1008.931,1008.931,0,0,1,.417.417h1.043c.209-.209.209-.209.209-.417.209,0,.209,0,.209-.209V241Z" transform="translate(-1260.61 -229.107)" fill="#f5f196"/>
  <path id="Path_99" data-name="Path 99" d="M1218,241v3.13a.2.2,0,0,0,.209.209l.209.209h4.382a.2.2,0,0,0,.209-.209c.209,0,.209,0,.209-.209V243.3a.2.2,0,0,0-.209-.209h-3.338V241Z" transform="translate(-1182.265 -229.107)" fill="#f5f196"/>
  <path id="Path_100" data-name="Path 100" d="M1144.417,309.921c0,.209,0,.209.209.417s.417.209.626.417a2.1,2.1,0,0,0,.626.209,2.713,2.713,0,0,0,2.086,0,1.582,1.582,0,0,0,.835-.417,1.629,1.629,0,0,0,.835-.835,2.646,2.646,0,0,0,.209-1.252c0-.626,0-1.043-.209-1.252a.2.2,0,0,0-.209-.209h-4.59a.2.2,0,0,1,.209.209c.417,0,.626.209,1.043.209.209.209.626.209.835.417a.766.766,0,0,1,.626.209.449.449,0,0,1,.417.417c0,.626-.417.835-1.043.835a.766.766,0,0,1-.626-.209l-.209-.209c-.209,0-.209,0-.209-.209h0c-.417-.209-.626-.417-.835-.417a.766.766,0,0,0-.626.209c-.417.417-.417.626-.417.835a.766.766,0,0,0,.209.626Z" transform="translate(-1123.705 -281.337)" fill="#f5f196"/>
  <path id="Path_101" data-name="Path 101" d="M1088.651,186.669l-14.4,25.663c-1.043,1.878-.208,3.338,1.461,4.173l16.9-15.857c.209-.417,0-.835-.417-.835h-4.8c-.417,0-.626-.626-.209-1.043l11.267-12.936c.417-.209,0-.835-.417-.835h-6.677A2.8,2.8,0,0,0,1088.651,186.669Z" transform="translate(-1068.147 -184.791)" fill="#068e3f"/>
  <path id="Path_102" data-name="Path 102" d="M1069.57,184h14.6c.417,0,.835.626.417.835l-11.267,12.936a.585.585,0,0,0,.417,1.043h4.59c.417,0,.834.417.417.835l-21.073,20.03c-.417.417-1.043,0-.835-.626l5.842-12.1c0-.417-.209-.835-.626-.835h-3.964c-.417,0-.626-.417-.417-.626l11.267-21.282C1069.153,184.209,1069.361,184,1069.57,184Z" transform="translate(-1054.7 -184)" fill="#f78a23"/>
  <path id="Path_103" data-name="Path 103" d="M1049,346.5h2.3l.417-2.5h-.835l-1.252.626Z" transform="translate(-1048.526 -310.617)" fill="#f9a13a"/>
  <path id="Path_104" data-name="Path 104" d="M1059.361,184h14.814a.565.565,0,0,1,.417.835l-11.475,12.936c-.209.417,0,1.043.417,1.043h4.8c.417,0,.626.417.209.835l-20.864,20.03c-.417.417-1.043,0-.835-.626l5.633-12.1c.209-.417,0-.835-.417-.835h-4.173c-.417,0-.626-.417-.417-.626l11.475-21.282A.728.728,0,0,1,1059.361,184Z" transform="translate(-1046.786 -184)" fill="#f1cf3f"/>
  <path id="Path_105" data-name="Path 105" d="M1066.455,233a38.57,38.57,0,0,0-16.691,7.094l-2.3,4.173c-.209.209,0,.626.417.626h4.173c.417,0,.626.417.417.835l-5.633,12.1c-.209.626.417,1.043.835.626l20.864-20.03c.417-.417.209-.835-.209-.835h-4.8c-.417,0-.626-.626-.417-1.043Z" transform="translate(-1046.786 -222.777)" fill="#f1cf3f"/>
  <path id="Path_106" data-name="Path 106" d="M1074.116,184H1059.3a.729.729,0,0,0-.417.209L1047.41,205.49c-.208.209,0,.626.417.626H1052c.417,0,.626.417.417.835l-5.633,12.1a.616.616,0,0,0,.417.835c.208,0,.208,0,.417-.209l20.864-20.03c.417-.417.209-.835-.209-.835h-4.8c-.417,0-.626-.626-.417-1.043l11.475-12.936A.565.565,0,0,0,1074.116,184Zm0,.417h0v.209l-11.267,12.936a.917.917,0,0,0-.209,1.043c.209.417.417.626.835.626h4.8l-20.864,20.238h-.208v-.209l5.633-12.1a.948.948,0,0,0,0-1.043,1.582,1.582,0,0,0-.835-.417h-4.173l11.475-21.282h14.814Z" transform="translate(-1046.727 -184)" fill="#ffcc39"/>
  <path id="Path_107" data-name="Path 107" d="M1070,204.814l8.137-14.6,10.849-.209-6.468,1.252-7.3,10.641A21.885,21.885,0,0,0,1070,204.814Z" transform="translate(-1065.144 -188.748)" fill="#f78a23"/>
  <path id="Path_108" data-name="Path 108" d="M1055,267.238l5.633-11.475c.209-.417-.209-.835-.626-.835h-4.59l2.712-5.007a21.887,21.887,0,0,1,5.216-2.921l-3.964,5.633h3.964c.835,0,1.252.835.835,1.669Z" transform="translate(-1053.274 -233.856)" fill="#e48b2c"/>
  <path id="Path_109" data-name="Path 109" d="M1310.087,284h8.763c.417,0,.417.417.209.626l-6.677,7.511a.4.4,0,0,0,.209.626h2.921a.4.4,0,0,1,.209.626L1303.2,305.282c-.209.209-.626-.209-.417-.417l3.338-7.3c0-.209,0-.417-.209-.417h-2.5c-.209,0-.417-.209-.209-.417l6.677-12.519Z" transform="translate(-1249.315 -263.136)" fill="#f78a23"/>
  <path id="Path_110" data-name="Path 110" d="M1298,380.461h1.252l.209-1.461h-.417l-.626.417Z" transform="translate(-1245.574 -338.315)" fill="#f9a13a"/>
  <path id="Path_111" data-name="Path 111" d="M1304.087,284h8.763a.4.4,0,0,1,.209.626l-6.677,7.511a.4.4,0,0,0,.209.626h2.712c.417,0,.417.417.208.626l-12.31,11.893c-.209.209-.626-.209-.417-.417l3.338-7.3a.449.449,0,0,0-.417-.417h-2.3a.449.449,0,0,1-.417-.417l6.885-12.519Z" transform="translate(-1244.567 -263.136)" fill="#e48b2c"/>
  <path id="Path_112" data-name="Path 112" d="M1308.26,313a22.708,22.708,0,0,0-9.806,4.173l-1.461,2.5a.449.449,0,0,0,.417.417h2.3a.449.449,0,0,1,.417.417l-3.338,7.3c-.209.209.209.626.417.417l12.31-11.893c.209-.209.209-.626-.208-.626h-2.712a.4.4,0,0,1-.209-.626Z" transform="translate(-1244.567 -286.085)" fill="#f78a23"/>
  <path id="Path_113" data-name="Path 113" d="M1312.738,284h-8.763l-.209.209-6.885,12.519a.449.449,0,0,0,.417.417h2.3a.449.449,0,0,1,.417.417l-3.338,7.3c-.209.209,0,.417.209.417h.209l12.31-11.893c.209-.209.209-.626-.209-.626h-2.712a.4.4,0,0,1-.209-.626l6.677-7.511A.4.4,0,0,0,1312.738,284Zm-.209.417-6.677,7.511c0,.209-.209.626,0,.835,0,.209.417.417.626.417h2.5l-11.893,11.267,3.13-6.677a.391.391,0,0,0,0-.626c0-.209-.209-.417-.626-.417h-2.086l6.677-12.31Zm-8.346,0Z" transform="translate(-1244.455 -263.136)" fill="#ffcc39"/>
  <path id="Path_114" data-name="Path 114" d="M1310,296.554l4.8-8.554h6.468l-3.755.626-4.382,6.259A22.8,22.8,0,0,0,1310,296.554Z" transform="translate(-1255.07 -266.301)" fill="#f1cf3f"/>
  <path id="Path_115" data-name="Path 115" d="M1301,333.1l3.338-6.677c.209-.417,0-.626-.417-.626h-2.712l1.669-3.13a22.8,22.8,0,0,1,3.13-1.669l-2.3,3.338h2.3a.626.626,0,0,1,.417,1.043Z" transform="translate(-1247.948 -292.416)" fill="#f1cf3f"/>
  <path id="Path_116" data-name="Path 116" d="M1419.417,219l.209.209h.209l-.209.209-.209.209-.208-.209-.209-.209h.209Z" transform="translate(-1341.328 -211.698)" fill="#fae93c"/>
</svg>
