<svg xmlns="http://www.w3.org/2000/svg" width="62.519" height="43.819" viewBox="0 0 62.519 43.819">
  <g id="_1747973476896" transform="translate(1.253 1.321)">
    <rect id="Rectangle_6" data-name="Rectangle 6" width="38.062" height="25.027" transform="translate(25.905 2.865) rotate(25)" fill="#f78a23" stroke="#f78a23" stroke-width="1.302"/>
    <rect id="Rectangle_7" data-name="Rectangle 7" width="38.062" height="6.192" transform="translate(23.529 7.964) rotate(25)" fill="#f1cf3f" stroke="#f1cf3f" stroke-width="1.302"/>
    <rect id="Rectangle_8" data-name="Rectangle 8" width="38" height="25" transform="translate(6.835 16.191)" fill="#068e3f" stroke="#068e3f" stroke-width="2.083"/>
    <rect id="Rectangle_9" data-name="Rectangle 9" width="38.062" height="6.192" transform="translate(7.094 22.325)" fill="#00b154" stroke="#00b154" stroke-width="2.083"/>
    <rect id="Rectangle_10" data-name="Rectangle 10" width="7.3" height="1.695" transform="translate(24.411 35.886)" fill="#fff" stroke="#fff" stroke-width="2.083"/>
    <circle id="Ellipse_27" data-name="Ellipse 27" cx="3" cy="3" r="3" transform="translate(35.835 32.191)" fill="#fff" stroke="#fff" stroke-width="2.083"/>
    <circle id="Ellipse_28" data-name="Ellipse 28" cx="1" cy="1" r="1" transform="translate(37.835 34.191)" fill="#068e3f" stroke="#068e3f" stroke-width="2.083"/>
    <path id="Path_65" data-name="Path 65" d="M1587.511,478.5l2.3-2.3,2.3,1.252,2.713-1.461,2.086,2.5h3.13l.835,2.921,2.712,1.46-.626,2.5,1.669,2.921-1.669,2.5.209,2.712-2.5,1.878-.834,2.921h-2.712l-2.086,2.086-2.712-1.252-2.5,1.252-2.3-2.086-2.921-.209-.834-2.921-2.712-1.669.626-2.921-1.669-2.3,1.669-2.712-.626-2.921,2.5-1.252.835-3.13Z" transform="translate(-1580 -476)" fill="#0ca6cd" stroke="#0ca6cd" stroke-width="2.083" fill-rule="evenodd"/>
    <ellipse id="Ellipse_29" data-name="Ellipse 29" cx="2.5" cy="2" rx="2.5" ry="2" transform="translate(5.835 6.191)" fill="#fff" stroke="#fff" stroke-width="2.083"/>
    <ellipse id="Ellipse_30" data-name="Ellipse 30" cx="1.5" cy="1" rx="1.5" ry="1" transform="translate(6.835 7.191)" fill="#0ca6cd" stroke="#0ca6cd" stroke-width="2.083"/>
    <circle id="Ellipse_31" data-name="Ellipse 31" cx="2.5" cy="2.5" r="2.5" transform="translate(13.835 14.191)" fill="#fff" stroke="#fff" stroke-width="2.083"/>
    <circle id="Ellipse_32" data-name="Ellipse 32" cx="1" cy="1" r="1" transform="translate(15.835 15.191)" fill="#0ca6cd" stroke="#0ca6cd" stroke-width="2.083"/>
    <path id="Path_66" data-name="Path 66" d="M1608,514.432,1618.641,504l2.086,2.086-10.641,10.432Z" transform="translate(-1602.158 -498.158)" fill="#1484a4" stroke="#1484a4" stroke-width="2.083" fill-rule="evenodd"/>
  </g>
</svg>
