<svg xmlns="http://www.w3.org/2000/svg" width="63.385" height="48.779" viewBox="0 0 63.385 48.779">
  <g id="_1747973480064" transform="translate(0.112 0.709)">
    <path id="Path_43" data-name="Path 43" d="M1060,481.3l40.477-7.3.626,4.173-32.757,5.633v1.252h33.383v29.627h-41.311Z" transform="translate(-1054.441 -474)" fill="#068e3f" fill-rule="evenodd"/>
    <path id="Path_44" data-name="Path 44" d="M1086,531.173l2.921-4.173h4.8l-2.921,4.173Z" transform="translate(-1075.016 -515.942)" fill="#fff" stroke="#fff" stroke-width="2.083" fill-rule="evenodd"/>
    <path id="Path_45" data-name="Path 45" d="M1131,532.173l2.921-4.173h4.8l-2.921,4.173Z" transform="translate(-1110.627 -516.733)" fill="#fff" stroke="#fff" stroke-width="2.083" fill-rule="evenodd"/>
    <path id="Path_46" data-name="Path 46" d="M1177,532.173l2.921-4.173h4.8l-2.713,4.173Z" transform="translate(-1147.03 -516.733)" fill="#fff" stroke="#fff" stroke-width="2.083" fill-rule="evenodd"/>
    <path id="Path_47" data-name="Path 47" d="M1224,532.173l2.921-4.173h4.59l-2.712,4.173Z" transform="translate(-1184.224 -516.733)" fill="#fff" stroke="#fff" stroke-width="2.083" fill-rule="evenodd"/>
    <path id="Path_48" data-name="Path 48" d="M1084,501.835l3.338,3.338,4.59-.835L1088.59,501Z" transform="translate(-1073.434 -495.367)" fill="#fff" stroke="#fff" stroke-width="2.083" fill-rule="evenodd"/>
    <path id="Path_49" data-name="Path 49" d="M1129,493.043l3.338,3.338,4.59-.835L1133.59,492Z" transform="translate(-1109.045 -488.244)" fill="#fff" stroke="#fff" stroke-width="2.083" fill-rule="evenodd"/>
    <path id="Path_50" data-name="Path 50" d="M1173,484.835l3.338,3.547,4.59-.835L1177.59,484Z" transform="translate(-1143.865 -481.914)" fill="#fff" stroke="#fff" stroke-width="2.083" fill-rule="evenodd"/>
    <path id="Path_51" data-name="Path 51" d="M1219,476.835l3.338,3.547,4.59-.835L1223.59,476Z" transform="translate(-1180.267 -475.583)" fill="#fff" stroke="#fff" stroke-width="2.083" fill-rule="evenodd"/>
    <rect id="Rectangle_1" data-name="Rectangle 1" width="33.1" height="0.643" transform="translate(10.149 19.404)" fill="#fff" stroke="#fff" stroke-width="2.083"/>
    <rect id="Rectangle_2" data-name="Rectangle 2" width="33.1" height="0.643" transform="translate(10.149 27.124)" fill="#fff" stroke="#fff" stroke-width="2.083"/>
    <rect id="Rectangle_3" data-name="Rectangle 3" width="33.1" height="0.643" transform="translate(10.149 35.261)" fill="#fff" stroke="#fff" stroke-width="2.083"/>
    <rect id="Rectangle_4" data-name="Rectangle 4" width="0.522" height="8.355" transform="translate(19.955 19.404)" fill="#fff" stroke="#fff" stroke-width="2.083"/>
    <rect id="Rectangle_5" data-name="Rectangle 5" width="0.522" height="8.355" transform="translate(32.265 19.404)" fill="#fff" stroke="#fff" stroke-width="2.083"/>
    <circle id="Ellipse_11" data-name="Ellipse 11" cx="1.5" cy="1.5" r="1.5" transform="translate(48.888 18.609)" fill="#f1cf3f" stroke="#f1cf3f" stroke-width="2.083"/>
    <circle id="Ellipse_12" data-name="Ellipse 12" cx="1.5" cy="1.5" r="1.5" transform="translate(52.888 19.609)" fill="#f1cf3f" stroke="#f1cf3f" stroke-width="2.083"/>
    <ellipse id="Ellipse_13" data-name="Ellipse 13" cx="2" cy="1.5" rx="2" ry="1.5" transform="translate(54.888 21.609)" fill="#f1cf3f" stroke="#f1cf3f" stroke-width="2.083"/>
    <circle id="Ellipse_14" data-name="Ellipse 14" cx="1.5" cy="1.5" r="1.5" transform="translate(49.888 22.609)" fill="#f1cf3f" stroke="#f1cf3f" stroke-width="2.083"/>
    <circle id="Ellipse_15" data-name="Ellipse 15" cx="1.5" cy="1.5" r="1.5" transform="translate(46.888 21.609)" fill="#f1cf3f" stroke="#f1cf3f" stroke-width="2.083"/>
    <ellipse id="Ellipse_16" data-name="Ellipse 16" cx="2" cy="1.5" rx="2" ry="1.5" transform="translate(41.888 23.609)" fill="#f1cf3f" stroke="#f1cf3f" stroke-width="2.083"/>
    <circle id="Ellipse_17" data-name="Ellipse 17" cx="1.5" cy="1.5" r="1.5" transform="translate(52.888 23.609)" fill="#f1cf3f" stroke="#f1cf3f" stroke-width="2.083"/>
    <ellipse id="Ellipse_18" data-name="Ellipse 18" cx="2" cy="1.5" rx="2" ry="1.5" transform="translate(57.888 23.609)" fill="#f1cf3f" stroke="#f1cf3f" stroke-width="2.083"/>
    <circle id="Ellipse_19" data-name="Ellipse 19" cx="10.5" cy="10.5" r="10.5" transform="translate(-0.112 24.609)" fill="#0ca6cd"/>
    <circle id="Ellipse_20" data-name="Ellipse 20" cx="2.5" cy="2.5" r="2.5" transform="translate(1.888 30.609)" fill="#1484a4" stroke="#1484a4" stroke-width="2.083"/>
    <circle id="Ellipse_21" data-name="Ellipse 21" cx="2.5" cy="2.5" r="2.5" transform="translate(6.888 26.609)" fill="#1484a4" stroke="#1484a4" stroke-width="2.083"/>
    <circle id="Ellipse_22" data-name="Ellipse 22" cx="2.5" cy="2.5" r="2.5" transform="translate(12.888 28.609)" fill="#1484a4" stroke="#1484a4" stroke-width="2.083"/>
    <ellipse id="Ellipse_23" data-name="Ellipse 23" cx="2.5" cy="3" rx="2.5" ry="3" transform="translate(13.888 34.609)" fill="#1484a4" stroke="#1484a4" stroke-width="2.083"/>
    <circle id="Ellipse_24" data-name="Ellipse 24" cx="2.5" cy="2.5" r="2.5" transform="translate(8.888 38.609)" fill="#1484a4" stroke="#1484a4" stroke-width="2.083"/>
    <circle id="Ellipse_25" data-name="Ellipse 25" cx="2.5" cy="2.5" r="2.5" transform="translate(2.888 36.609)" fill="#1484a4" stroke="#1484a4" stroke-width="2.083"/>
    <circle id="Ellipse_26" data-name="Ellipse 26" cx="2.5" cy="2.5" r="2.5" transform="translate(1.888 30.609)" fill="#1484a4" stroke="#1484a4" stroke-width="2.083"/>
    <path id="Path_52" data-name="Path 52" d="M1145,615.958l2.921,13.979s1.669.835,2.086-.417c.209-1.252.417.835,1.252.626s.835-.835.835-.835,1.461,1.878,2.086,1.252c.417-.835.835-1.252,1.043-.417a1.079,1.079,0,0,0,1.878,0c.626-.626,1.043,1.669,1.669,1.252a1.541,1.541,0,0,0,1.043-1.252c0-.417,2.5-13.979,2.5-13.979s-1.461-1.043-2.086,0-1.043-1.878-2.5-.626c-1.252,1.252-.626-1.878-2.086-.626-1.669,1.043-.209-1.878-2.086-1.252-1.669.417-.835,1.252-2.087.626-1.46-.626-1.46.626-1.46.626a1.533,1.533,0,0,1-1.252-.209c-.835-.417-1.043.626-1.043.626s-.417.417-1.043-.209A1.029,1.029,0,0,0,1145,615.958Z" transform="translate(-1121.706 -584.453)" fill="#f78a23" stroke="#f1cf3f" stroke-width="2.083" fill-rule="evenodd"/>
    <path id="Path_53" data-name="Path 53" d="M1151,622.461l7.094-1.461,2.5,13.353-6.677.209Z" transform="translate(-1126.455 -590.33)" fill="#00b154" stroke="#fff" stroke-width="2.083" fill-rule="evenodd"/>
    <path id="Path_54" data-name="Path 54" d="M1178.086,627l7.72,1.043-2.086,11.893-7.72-1.043Z" transform="translate(-1146.239 -595.078)" fill="#068e3f" stroke="#fff" stroke-width="2.083" fill-rule="evenodd"/>
    <path id="Path_55" data-name="Path 55" d="M1169.835,634l.626.626.835-.417-.626.626.417.626-.835-.209-.417.626v-.626l-.835-.209.835-.417Z" transform="translate(-1140.699 -600.617)" fill="#f1cf3f" stroke="#f1cf3f" stroke-width="2.083" fill-rule="evenodd"/>
    <path id="Path_56" data-name="Path 56" d="M1167.835,652l.626.626.835-.417-.626.835.626.626-.835-.209-.626.626v-.835l-.835-.209.835-.209Z" transform="translate(-1139.116 -614.862)" fill="#f1cf3f" stroke="#f1cf3f" stroke-width="2.083" fill-rule="evenodd"/>
    <path id="Path_57" data-name="Path 57" d="M1198.835,638l.626.835.835-.417-.417.835.626.835-1.043-.417-.417.835v-.835l-1.043-.417.835-.209Z" transform="translate(-1163.648 -603.783)" fill="#f1cf3f" stroke="#f1cf3f" stroke-width="2.083" fill-rule="evenodd"/>
    <path id="Path_58" data-name="Path 58" d="M1190.043,653l.626.626,1.043-.209-.626.626.626.835-1.043-.209-.626.835v-1.043l-1.043-.209,1.043-.209Z" transform="translate(-1156.526 -615.653)" fill="#f1cf3f" stroke="#f1cf3f" stroke-width="2.083" fill-rule="evenodd"/>
    <path id="Path_59" data-name="Path 59" d="M1192.835,669l.626.835.835-.417-.626.835.626.626-.835-.209-.626.835v-1.043l-.835-.209.835-.209Z" transform="translate(-1158.9 -628.315)" fill="#f1cf3f" stroke="#f1cf3f" stroke-width="2.083" fill-rule="evenodd"/>
    <path id="Path_60" data-name="Path 60" d="M1230,597h20.864l-.417,1.461-20.238-.209Z" transform="translate(-1188.972 -571.337)" fill="#e48b2c" stroke="#e48b2c" stroke-width="2.083" fill-rule="evenodd"/>
    <path id="Path_61" data-name="Path 61" d="M1238.086,621.361h13.979l2.3-18.152L1240.173,603H1236Z" transform="translate(-1193.72 -576.085)" fill="#f78a23" fill-rule="evenodd"/>
    <path id="Path_62" data-name="Path 62" d="M1248.086,603l2.086,18.361h-2.3L1246,603Z" transform="translate(-1201.634 -576.085)" fill="#fff" fill-rule="evenodd"/>
    <path id="Path_63" data-name="Path 63" d="M1273,604v18.152h2.5V604Z" transform="translate(-1223 -576.876)" fill="#fff" fill-rule="evenodd"/>
    <path id="Path_64" data-name="Path 64" d="M1296.3,604l-2.3,18.152h2.5L1298.8,604Z" transform="translate(-1239.619 -576.876)" fill="#fff" fill-rule="evenodd"/>
  </g>
</svg>
