<svg xmlns="http://www.w3.org/2000/svg" width="48.231" height="49.622" viewBox="0 0 48.231 49.622">
  <g id="Layer_x0020_1" transform="translate(-23.769 -26.628)">
    <g id="_1747976825312">
      <path id="Path_1" data-name="Path 1" d="M42,28,29,36,24,72l24,3,5-35Z" fill="#0ca6cd" stroke="#0ca6cd" stroke-width="0.408" fill-rule="evenodd"/>
      <path id="Path_2" data-name="Path 2" d="M39,28,29,41l8,35,23-6L53,35Z" fill="#f1cf3f" stroke="#f1cf3f" stroke-width="0.408" fill-rule="evenodd"/>
      <path id="Path_3" data-name="Path 3" d="M35,31,31,46,53,75,72,60,50,31Z" fill="#13b04c" fill-rule="evenodd"/>
      <path id="Path_4" data-name="Path 4" d="M59,45a5.568,5.568,0,0,0-2,6c1,4,5,7,7,7s6-2,6-4a9.1,9.1,0,0,0-4-8C63,44,61,44,59,45Z" fill="#fff" fill-rule="evenodd"/>
      <path id="Path_5" data-name="Path 5" d="M60,46s-3,2-2,5,4,6,6,6c1,0,5-1,5-4,0-2-1-5-3-6C63,45,62,45,60,46Z" fill="#f8974b" fill-rule="evenodd"/>
      <path id="Path_6" data-name="Path 6" d="M62,49s-1,1,1,3,2,2,3,1A4.3,4.3,0,0,0,62,49Z" fill="#13b04c" stroke="#fff" stroke-width="0.98" fill-rule="evenodd"/>
      <path id="Path_7" data-name="Path 7" d="M44,45s-4,2-2,6c1,3,5,6,6,6,2,1,6-1,6-4,1-2,0-6-3-8S46,43,44,45Z" fill="#fff" fill-rule="evenodd"/>
      <path id="Path_8" data-name="Path 8" d="M44,46s-2,1-1,5c1,3,4,5,5,5,2,1,5-1,5-3s0-5-3-7Q47,43,44,46Z" fill="#f8974b" fill-rule="evenodd"/>
      <path id="Path_9" data-name="Path 9" d="M47,48s-1,2,0,3c2,2,3,2,3,1S48,48,47,48Z" fill="#13b04c" stroke="#fff" stroke-width="0.98" fill-rule="evenodd"/>
      <path id="Path_10" data-name="Path 10" d="M62,61l-5,3L50,41l5-4Z" fill="#fff" stroke="#fff" stroke-width="0.408" fill-rule="evenodd"/>
      <path id="Path_11" data-name="Path 11" d="M54,38l-2,3,5,22,3-2Z" fill="#f8974b" stroke="#f8974b" stroke-width="0.408" fill-rule="evenodd"/>
      <path id="Path_12" data-name="Path 12" d="M47,31s4-5,8-4c4,0,5,3,4,6,0,2-6,7-14,7,0,0-5,0-3-2H41a7.74,7.74,0,0,1,3,1c2,0,7,1,13-4,5-5-2-8-4-7a32.082,32.082,0,0,0-5,3Z" stroke="#000" stroke-width="0.408" fill-rule="evenodd"/>
      <circle id="Ellipse_1" data-name="Ellipse 1" cx="2" cy="2" r="2" transform="translate(39 37)" fill="#fff" stroke="#fff" stroke-width="0.408"/>
      <path id="Path_13" data-name="Path 13" d="M31,46,48,73h3Z" fill="#f78a23" fill-rule="evenodd"/>
      <path id="Path_14" data-name="Path 14" d="M35,68l11-2,1,2L35,70Z" fill="#e48b2c" stroke="#e48b2c" stroke-width="0.408" fill-rule="evenodd"/>
      <path id="Path_15" data-name="Path 15" d="M29,41l3,33h4Z" fill="#1484a4" stroke="#1484a4" stroke-width="0.408" fill-rule="evenodd"/>
    </g>
  </g>
</svg>
