<svg xmlns="http://www.w3.org/2000/svg" width="53.284" height="44.275" viewBox="0 0 53.284 44.275">
  <g id="_1747973454912" transform="translate(1.314 1.08)">
    <path id="Path_117" data-name="Path 117" d="M1600.72,236.043H1593l5.425,23.159,22.951-.209L1622.419,235l-18.36,4.173Z" transform="translate(-1593 -217.474)" fill="#1484a4" stroke="#1484a4" stroke-width="2.083" fill-rule="evenodd"/>
    <path id="Path_118" data-name="Path 118" d="M1595,207h3.756l2.5,3.964-.417,2.921h-4.173Z" transform="translate(-1594.583 -195.316)" fill="#f1cf3f" stroke="#f1cf3f" stroke-width="2.083" fill-rule="evenodd"/>
    <path id="Path_119" data-name="Path 119" d="M1612,191.626l3.547-.626,3.13,3.547-1.252,8.137-1.669-1.46h-1.46l.417-2.921-2.5-3.964Z" transform="translate(-1608.036 -182.654)" fill="#e48b2c" stroke="#e48b2c" stroke-width="2.083" fill-rule="evenodd"/>
    <path id="Path_120" data-name="Path 120" d="M1617,170v4.8l6.677,10.849,1.878-3.13-3.964-7.928-.834-4.381Z" transform="translate(-1611.993 -166.036)" fill="#f1cf3f" stroke="#f1cf3f" stroke-width="2.083" fill-rule="evenodd"/>
    <path id="Path_121" data-name="Path 121" d="M1635.209,163l5.007.209.209,9.6,1.252,2.712-1.878,1.46-3.964-7.928-.835-4.381Z" transform="translate(-1626.237 -160.496)" fill="#e48b2c" stroke="#e48b2c" stroke-width="2.083" fill-rule="evenodd"/>
    <path id="Path_122" data-name="Path 122" d="M1666,151.209l6.051-.209-.626,12.936-3.964.626Z" transform="translate(-1650.769 -151)" fill="#f1cf3f" stroke="#f1cf3f" stroke-width="2.083" fill-rule="evenodd"/>
    <path id="Path_123" data-name="Path 123" d="M1700,170l3.964.209-.417,8.346-3.338.209Z" transform="translate(-1677.675 -166.036)" fill="#e48b2c" stroke="#e48b2c" stroke-width="2.083" fill-rule="evenodd"/>
    <path id="Path_124" data-name="Path 124" d="M1722,156v11.267h3.547L1727.216,156Z" transform="translate(-1695.085 -154.957)" fill="#f1cf3f" stroke="#f1cf3f" stroke-width="2.083" fill-rule="evenodd"/>
    <path id="Path_125" data-name="Path 125" d="M1685.945,220.951s1.043-8.763-7.72-10.223c-8.972-1.46-21.7.209-21.7.209s-7.928,1.878-6.885,9.806Z" transform="translate(-1637.749 -197.792)" fill="#f1cf3f" stroke="#f1cf3f" stroke-width="2.083" fill-rule="evenodd"/>
    <path id="Path_126" data-name="Path 126" d="M1638.3,278.608a8.408,8.408,0,0,1-1.043-6.051s-5.007-1.252-1.043-4.59c0,0-2.712-7.094,1.669-7.511s36.3.209,36.3.209,3.547-.835,1.878,6.468c0,0,2.712,4.59-2.086,6.468,0,0,1.043,5.007-1.878,5.425-3.13.417-33.8.626-33.8.626Z" transform="translate(-1625.985 -237.505)" fill="#068e3f" stroke="#068e3f" stroke-width="2.083" fill-rule="evenodd"/>
    <path id="Path_127" data-name="Path 127" d="M1636.7,273.1l36.721,1.043s4.8-1.252,2.086-6.468c0,0,2.086-6.468-1.878-6.468l-36.3-.209s-4.59.835-1.669,7.511C1635.66,268.511,1631.279,271.432,1636.7,273.1Z" transform="translate(-1625.437 -238.049)" fill="#00b154" stroke="#00b154" stroke-width="2.083" fill-rule="evenodd"/>
    <path id="Path_128" data-name="Path 128" d="M1639,262.878a8.323,8.323,0,0,0,7.3,3.547,5.771,5.771,0,0,0,3.13-1.46,3.46,3.46,0,0,1,3.338-.835s4.173,3.547,7.3,2.3,4.59-4.173,7.3-2.5c2.712,1.46,5.633,3.547,8.346,1.46a25.99,25.99,0,0,0,3.756-3.338s.209-.835-3.13-.835c-3.13,0-35.052-.209-35.052-.209S1639.209,261.209,1639,262.878Z" transform="translate(-1629.402 -238.049)" fill="#068e3f" stroke="#068e3f" stroke-width="2.083" fill-rule="evenodd"/>
    <path id="Path_129" data-name="Path 129" d="M1604,286.209l5.007-.209-.209,1.669h-4.382Z" transform="translate(-1601.705 -257.833)" fill="#0ca6cd" stroke="#0ca6cd" stroke-width="2.083" fill-rule="evenodd"/>
    <path id="Path_130" data-name="Path 130" d="M1611,316h3.964l-.209,1.669h-3.547Z" transform="translate(-1607.245 -281.574)" fill="#0ca6cd" stroke="#0ca6cd" stroke-width="2.083" fill-rule="evenodd"/>
    <path id="Path_131" data-name="Path 131" d="M1710,298.209s10.015,7.72,12.727,7.094c2.5-.626,9.389-7.3,9.389-7.3Z" transform="translate(-1685.589 -267.33)" fill="#f78a23" stroke="#f78a23" stroke-width="2.083" fill-rule="evenodd"/>
    <path id="Path_132" data-name="Path 132" d="M1661.529,277.525s-1.043,11.893,2.921,8.763l1.46-2.5s.417,6.051,2.5,4.382c1.878-1.878,2.3-3.964,2.086-12.727,0,0-.834-.835-4.381,1.46C1666.12,276.9,1663.616,278.36,1661.529,277.525Z" transform="translate(-1647.133 -249.359)" fill="#f78a23" stroke="#f78a23" stroke-width="2.083" fill-rule="evenodd"/>
  </g>
</svg>
