<svg xmlns="http://www.w3.org/2000/svg" width="348.053" height="151.414" viewBox="0 0 348.053 151.414">
  <g id="Layer_x0020_1" transform="translate(-1044.132 -855.836)">
    <path id="Path_1" data-name="Path 1" d="M1087,878l-42,113s-5,13,9,15,280,1,280,1,11-1,16-16,41-106,41-106,6-13-9-14-278,0-278,0S1093,870,1087,878Z" fill="#00b154" fill-rule="evenodd"/>
    <path id="Path_2" data-name="Path 2" d="M1082,978h101l42-107s4-12,11-15h-99s-8-1-14,15S1082,978,1082,978Z" fill="#f78a23" fill-rule="evenodd"/>
    <path id="Path_3" data-name="Path 3" d="M1254,871s-3-17-18-15c0,0-6,1-11,15Z" fill="#633" fill-rule="evenodd"/>
    <path id="Path_4" data-name="Path 4" d="M1294,871s18,77-53,136h93s8-1,14-12c7-11,43-110,43-110s5-13-6-14Z" fill="#068e3f" fill-rule="evenodd"/>
  </g>
</svg>
