<svg xmlns="http://www.w3.org/2000/svg" width="43" height="66" viewBox="0 0 43 66">
  <g id="_2766392655952" transform="translate(-815 -1296)">
    <path id="Path_17" data-name="Path 17" d="M830,1312l-7-13a112.789,112.789,0,0,1,28,0l-7,13Z" fill="none" stroke="#078e49" stroke-width="4" fill-rule="evenodd"/>
    <path id="Path_18" data-name="Path 18" d="M835,1317h3a17.925,17.925,0,0,1,18,18v14c0,6-5,11-10,11H827c-5,0-10-5-10-10v-15A17.925,17.925,0,0,1,835,1317Z" fill="none" stroke="#078e49" stroke-width="4" fill-rule="evenodd"/>
    <path id="Path_19" data-name="Path 19" d="M843,1333s-3-5-6-4c-4,0-6,3-5,5,1,3,2,4,5,5s6,3,5,7a6.033,6.033,0,0,1-5,4c-1,0-4-1-5-5" fill="none" stroke="#078e49" stroke-width="4" fill-rule="evenodd"/>
    <path id="Path_20" data-name="Path 20" d="M830,1317v-5h14v5Z" fill="none" stroke="#078e49" stroke-width="4" fill-rule="evenodd"/>
    <line id="Line_2" data-name="Line 2" y2="5" transform="translate(837 1324)" fill="none" stroke="#078e49" stroke-width="4"/>
    <line id="Line_3" data-name="Line 3" y2="5" transform="translate(837 1350)" fill="none" stroke="#078e49" stroke-width="4"/>
  </g>
</svg>
