<svg xmlns="http://www.w3.org/2000/svg" width="234" height="234" viewBox="0 0 234 234">
  <g id="_2575388334544" transform="translate(-195 -829)">
    <rect id="Rectangle_11" data-name="Rectangle 11" width="152" height="234" rx="5" transform="translate(195 829)" fill="#f1cf3f"/>
    <rect id="Rectangle_12" data-name="Rectangle 12" width="115.531" height="46.6" rx="3" transform="translate(213 854)" fill="#13b04c" stroke="#13b04c" stroke-width="0.9"/>
    <line id="Line_1" data-name="Line 1" x2="87" transform="translate(229 867)" fill="none" stroke="#fff" stroke-width="9.999"/>
    <line id="Line_2" data-name="Line 2" x2="40" transform="translate(227 887)" fill="none" stroke="#fff" stroke-width="9.999"/>
    <line id="Line_3" data-name="Line 3" x2="21" transform="translate(274 887)" fill="none" stroke="#fff" stroke-width="9.999"/>
    <rect id="Rectangle_13" data-name="Rectangle 13" width="115.531" height="46.6" rx="3" transform="translate(213 923)" fill="#13b04c" stroke="#13b04c" stroke-width="0.9"/>
    <line id="Line_4" data-name="Line 4" x2="87" transform="translate(229 936)" fill="none" stroke="#fff" stroke-width="9.999"/>
    <line id="Line_5" data-name="Line 5" x2="40" transform="translate(227 956)" fill="none" stroke="#fff" stroke-width="9.999"/>
    <line id="Line_6" data-name="Line 6" x2="21" transform="translate(274 956)" fill="none" stroke="#fff" stroke-width="9.999"/>
    <rect id="Rectangle_14" data-name="Rectangle 14" width="115.531" height="46.6" rx="3" transform="translate(213 993)" fill="#13b04c" stroke="#13b04c" stroke-width="0.9"/>
    <line id="Line_7" data-name="Line 7" x2="87" transform="translate(229 1006)" fill="none" stroke="#fff" stroke-width="9.999"/>
    <line id="Line_8" data-name="Line 8" x2="40" transform="translate(227 1025)" fill="none" stroke="#fff" stroke-width="9.999"/>
    <line id="Line_9" data-name="Line 9" x2="21" transform="translate(274 1026)" fill="none" stroke="#fff" stroke-width="9.999"/>
    <circle id="Ellipse_33" data-name="Ellipse 33" cx="64" cy="64" r="64" transform="translate(301 934)" fill="#0ca6cd"/>
    <circle id="Ellipse_34" data-name="Ellipse 34" cx="48" cy="48" r="48" transform="translate(317 950)" fill="#f8974b"/>
    <path id="Path_133" data-name="Path 133" d="M365,963v35H335" fill="none" stroke="#fff" stroke-width="9.999" fill-rule="evenodd"/>
  </g>
</svg>
