<svg xmlns="http://www.w3.org/2000/svg" width="216.167" height="266.718" viewBox="0 0 216.167 266.718">
  <g id="_2575256385120" transform="translate(-1602.958 -772.639)">
    <rect id="Rectangle_19" data-name="Rectangle 19" width="32.395" height="107.151" rx="6" transform="translate(1642 919)" fill="#00b154" stroke="#00b154" stroke-width="2.083"/>
    <rect id="Rectangle_20" data-name="Rectangle 20" width="53.575" height="133.315" rx="6" transform="translate(1604 905)" fill="#068e3f" stroke="#068e3f" stroke-width="2.083"/>
    <path id="Path_149" data-name="Path 149" d="M1682,931s36,0,43-58c0,0,5-15,14-8,9,6,16,25,4,44-13,20,51,3,54,18,2,15-6,19-11,20,0,0,15,5,13,14-2,8-5,12-13,13,0,0,15,6,12,14-2,8-4,13-13,13,0,0,15,4,14,15s-10,11-21,12h-58a45,45,0,0,1-18-7c-8-6-20-6-20-6Z" fill="#e48b2c" stroke="#e48b2c" stroke-width="2.083" fill-rule="evenodd"/>
    <path id="Path_150" data-name="Path 150" d="M1685,827l8,23h25l-20,15,7,23-20-14-20,14,8-23-20-15h25Z" fill="#f1cf3f" stroke="#f1cf3f" stroke-width="2.083" fill-rule="evenodd"/>
    <path id="Path_151" data-name="Path 151" d="M1734,776l7,23h25l-20,15,8,23-20-14-20,14,7-23-20-15h25Z" fill="#f1cf3f" stroke="#f1cf3f" stroke-width="2.083" fill-rule="evenodd"/>
    <path id="Path_152" data-name="Path 152" d="M1784,827l7,24h25l-20,15,8,23-20-14-20,14,8-23-21-15h25Z" fill="#f1cf3f" stroke="#f1cf3f" stroke-width="2.083" fill-rule="evenodd"/>
  </g>
</svg>
