<svg xmlns="http://www.w3.org/2000/svg" width="237.006" height="256" viewBox="0 0 237.006 256">
  <g id="_2575256387328" transform="translate(-561.994 -803)">
    <path id="Path_134" data-name="Path 134" d="M606,918s7,48,49,49c41,1,56-29,59-49,4-20-6-41-6-41l-93-4-10,16Z" fill="#f1cf3f" fill-rule="evenodd"/>
    <path id="Path_135" data-name="Path 135" d="M599,872s-7-59,55-64c0,0,46-2,62,29,0,0,9,13,5,35C721,872,664,837,599,872Z" fill="#1484a4" fill-rule="evenodd"/>
    <path id="Path_136" data-name="Path 136" d="M611,906l-13-11,1-23s8,13,12,14Z" fill-rule="evenodd"/>
    <path id="Path_137" data-name="Path 137" d="M721,872s-7,12-12,13v20l6-4,6-6Z" fill-rule="evenodd"/>
    <path id="Path_138" data-name="Path 138" d="M562,1058s-2-65,68-79c0,0,66-8,91,12s40,41,46,67Z" fill="#068e3f" fill-rule="evenodd"/>
    <path id="Path_139" data-name="Path 139" d="M599,991v67H719V989s-8-6-22-8v53H623V981S606,984,599,991Z" fill="#00b154" fill-rule="evenodd"/>
    <path id="Path_140" data-name="Path 140" d="M611,886s2,2,7,0c5-1,48-10,86,2a51.953,51.953,0,0,0,5-3c3-2,11-9,11-14,0,0-43-25-96-10-8,3-17,6-25,11C599,872,608,886,611,886Z" fill="#0ca6cd" stroke="#0ca6cd" stroke-width="0.9" fill-rule="evenodd"/>
    <path id="Path_141" data-name="Path 141" d="M599,1016H719v18H599Z" fill="#e48b2c" fill-rule="evenodd"/>
    <path id="Path_142" data-name="Path 142" d="M659,808s-28,2-35,53c0,0,36-11,72,1C696,862,688,806,659,808Z" fill="#0ca6cd" fill-rule="evenodd"/>
    <ellipse id="Ellipse_35" data-name="Ellipse 35" cx="8" cy="3" rx="8" ry="3" transform="translate(653 803)" fill="#0ca6cd"/>
    <ellipse id="Ellipse_36" data-name="Ellipse 36" cx="5" cy="6" rx="5" ry="6" transform="translate(631 901)" fill="#f78a23"/>
    <ellipse id="Ellipse_37" data-name="Ellipse 37" cx="5" cy="6" rx="5" ry="6" transform="translate(679 900)" fill="#f78a23"/>
    <path id="Path_143" data-name="Path 143" d="M598,895s-15,19,8,23c0,0-2-14,0-17Z" fill="none" fill-rule="evenodd"/>
    <path id="Path_144" data-name="Path 144" d="M714,918s23-6,7-23l-6,5S715,916,714,918Z" fill="none" fill-rule="evenodd"/>
    <path id="Path_145" data-name="Path 145" d="M659,1016l32-38V957s-28,21-62,1l1,21Z" fill="#f78a23" fill-rule="evenodd"/>
    <rect id="Rectangle_15" data-name="Rectangle 15" width="123" height="189" rx="4" transform="translate(676 870)" fill="#f1cf3f"/>
    <rect id="Rectangle_16" data-name="Rectangle 16" width="93.281" height="37.626" rx="2" transform="translate(690 890)" fill="#13b04c" stroke="#13b04c" stroke-width="0.9"/>
    <line id="Line_10" data-name="Line 10" x2="71" transform="translate(703 901)" fill="none" stroke="#fff" stroke-width="9.999"/>
    <line id="Line_11" data-name="Line 11" x2="33" transform="translate(701 916)" fill="none" stroke="#fff" stroke-width="9.999"/>
    <line id="Line_12" data-name="Line 12" x2="17" transform="translate(739 917)" fill="none" stroke="#fff" stroke-width="9.999"/>
    <rect id="Rectangle_17" data-name="Rectangle 17" width="93.281" height="37.626" rx="2" transform="translate(690 946)" fill="#13b04c" stroke="#13b04c" stroke-width="0.9"/>
    <line id="Line_13" data-name="Line 13" x2="71" transform="translate(703 956)" fill="none" stroke="#fff" stroke-width="9.999"/>
    <line id="Line_14" data-name="Line 14" x2="33" transform="translate(701 972)" fill="none" stroke="#fff" stroke-width="9.999"/>
    <line id="Line_15" data-name="Line 15" x2="17" transform="translate(739 972)" fill="none" stroke="#fff" stroke-width="9.999"/>
    <rect id="Rectangle_18" data-name="Rectangle 18" width="93.281" height="37.626" rx="2" transform="translate(690 1002)" fill="#13b04c" stroke="#13b04c" stroke-width="0.9"/>
    <line id="Line_16" data-name="Line 16" x2="71" transform="translate(703 1012)" fill="none" stroke="#fff" stroke-width="9.999"/>
    <line id="Line_17" data-name="Line 17" x2="33" transform="translate(701 1028)" fill="none" stroke="#fff" stroke-width="9.999"/>
    <line id="Line_18" data-name="Line 18" x2="17" transform="translate(739 1029)" fill="none" stroke="#fff" stroke-width="9.999"/>
  </g>
</svg>
