<svg xmlns="http://www.w3.org/2000/svg" width="1611.083" height="18.083" viewBox="0 0 1611.083 18.083">
  <g id="Layer_x0020_1" transform="translate(-904.958 -1204.958)">
    <path id="Path_1" data-name="Path 1" d="M906,1206v16h71l-12-16Z" fill="#13b24d" stroke="#13b24d" stroke-width="2.083" fill-rule="evenodd"/>
    <path id="Path_2" data-name="Path 2" d="M995,1206l10,16h95l-12-16Z" fill="#ccc" stroke="#ccc" stroke-width="2.083" fill-rule="evenodd"/>
    <path id="Path_3" data-name="Path 3" d="M1119,1206l10,16h96l-12-16Z" fill="#13b24d" stroke="#13b24d" stroke-width="2.083" fill-rule="evenodd"/>
    <path id="Path_4" data-name="Path 4" d="M1242,1206l10,16h96l-12-16Z" fill="#ccc" stroke="#ccc" stroke-width="2.083" fill-rule="evenodd"/>
    <path id="Path_5" data-name="Path 5" d="M1366,1206l10,16h96l-12-16Z" fill="#13b24d" stroke="#13b24d" stroke-width="2.083" fill-rule="evenodd"/>
    <path id="Path_6" data-name="Path 6" d="M1485,1206l10,16h96l-12-16Z" fill="#ccc" stroke="#ccc" stroke-width="2.083" fill-rule="evenodd"/>
    <path id="Path_7" data-name="Path 7" d="M1610,1206l10,16h95l-12-16Z" fill="#13b24d" stroke="#13b24d" stroke-width="2.083" fill-rule="evenodd"/>
    <path id="Path_8" data-name="Path 8" d="M1732,1206l10,16h96l-12-16Z" fill="#ccc" stroke="#ccc" stroke-width="2.083" fill-rule="evenodd"/>
    <path id="Path_9" data-name="Path 9" d="M1857,1206l10,16h95l-12-16Z" fill="#13b24d" stroke="#13b24d" stroke-width="2.083" fill-rule="evenodd"/>
    <path id="Path_10" data-name="Path 10" d="M1977,1206l10,16h96l-12-16Z" fill="#ccc" stroke="#ccc" stroke-width="2.083" fill-rule="evenodd"/>
    <path id="Path_11" data-name="Path 11" d="M2100,1206l10,16h96l-12-16Z" fill="#13b24d" stroke="#13b24d" stroke-width="2.083" fill-rule="evenodd"/>
    <path id="Path_12" data-name="Path 12" d="M2225,1206l10,16h95l-12-16Z" fill="#ccc" stroke="#ccc" stroke-width="2.083" fill-rule="evenodd"/>
    <path id="Path_13" data-name="Path 13" d="M2224,1206l10,16h95l-12-16Z" fill="#ccc" stroke="#ccc" stroke-width="2.083" fill-rule="evenodd"/>
    <path id="Path_14" data-name="Path 14" d="M2348,1206l10,16h95l-12-16Z" fill="#13b24d" stroke="#13b24d" stroke-width="2.083" fill-rule="evenodd"/>
    <path id="Path_15" data-name="Path 15" d="M2471,1206l10,16h34v-16Z" fill="#ccc" stroke="#ccc" stroke-width="2.083" fill-rule="evenodd"/>
  </g>
</svg>
